<svg aria-label="daisyUI logomark" viewBox="0 0 450 450" fill="none" xmlns="http://www.w3.org/2000/svg"><g data-name="bg"><g opacity=".7"><path d="M148.425 40.167c-5.725 8.432-10.275 18.214-13.273 29.347a93.022 93.022 0 0 1-65.638 65.639c-11.133 2.997-20.916 7.547-29.348 13.273-11.952-62.513 45.746-120.21 108.259-108.26Z" fill="#FFD819"/><path d="M40.167 148.425c1.914 10.011 5.614 20.146 11.366 30.138a93.022 93.022 0 0 1 0 92.827c-5.752 9.992-9.453 20.126-11.366 30.138-52.654-35.753-52.654-117.35 0-153.103Z" fill="#FFE029"/><path d="M148.425 409.786c-5.725-8.432-10.275-18.215-13.273-29.348A93.02 93.02 0 0 0 69.514 314.8c-11.133-2.998-20.916-7.548-29.348-13.274-11.952 62.513 45.746 120.211 108.259 108.26Z" fill="#FFC141"/><path d="M301.528 409.785c-10.011-1.914-20.145-5.614-30.137-11.366a93.021 93.021 0 0 0-92.827 0c-9.992 5.752-20.127 9.453-30.138 11.366 35.752 52.654 117.35 52.654 153.102 0Z" fill="#FFB655"/><path d="M409.787 301.527c-8.432 5.726-18.214 10.275-29.347 13.273a93.022 93.022 0 0 0-65.639 65.639c-2.997 11.132-7.547 20.915-13.273 29.347 62.512 11.951 120.21-45.747 108.259-108.259Z" fill="#FFB35B"/><path d="M409.787 148.426c-1.914 10.011-5.614 20.145-11.367 30.137a93.026 93.026 0 0 0 0 92.827c5.753 9.992 9.453 20.126 11.367 30.137 52.653-35.752 52.653-117.348 0-153.101Z" fill="#FFB656"/><path d="M301.528 40.166c5.726 8.433 10.276 18.215 13.273 29.348a93.025 93.025 0 0 0 65.639 65.639c11.133 2.997 20.915 7.547 29.347 13.272C421.738 85.913 364.04 28.216 301.528 40.166Z" fill="#FFC042"/><path d="M148.426 40.167c10.011 1.914 20.145 5.614 30.137 11.367a93.022 93.022 0 0 0 92.827 0c9.992-5.753 20.126-9.453 30.137-11.367-35.753-52.653-117.349-52.653-153.101 0Z" fill="#FFCE2A"/></g><path fill-rule="evenodd" clip-rule="evenodd" d="M135.155 69.514c2.997-11.133 7.547-20.916 13.273-29.348 10.01 1.914 20.145 5.614 30.136 11.367a93.022 93.022 0 0 0 92.827 0c9.992-5.753 20.127-9.453 30.138-11.367 5.726 8.432 10.276 18.215 13.273 29.348a93.022 93.022 0 0 0 65.639 65.638c11.132 2.998 20.915 7.547 29.347 13.273-1.914 10.011-5.614 20.146-11.367 30.137a93.023 93.023 0 0 0 0 92.828c5.753 9.991 9.453 20.126 11.367 30.137-8.432 5.726-18.215 10.275-29.347 13.273a93.022 93.022 0 0 0-65.639 65.638c-2.997 11.133-7.547 20.916-13.273 29.348-10.011-1.914-20.146-5.614-30.138-11.367a93.026 93.026 0 0 0-92.827 0c-9.991 5.753-20.126 9.453-30.136 11.367-5.726-8.432-10.276-18.215-13.273-29.348A93.022 93.022 0 0 0 69.516 314.8c-11.133-2.998-20.916-7.548-29.348-13.274 1.914-10.01 5.614-20.145 11.366-30.136a93.024 93.024 0 0 0 0-92.828c-5.752-9.991-9.452-20.125-11.366-30.136 8.432-5.726 18.215-10.276 29.348-13.274a93.022 93.022 0 0 0 65.639-65.638Z" fill="url(#a)"/></g><rect x="313.369" y="252.866" width="31.301" height="15.65" rx="7.825" transform="rotate(60 313.369 252.866)" fill="#FFA17A"/><rect x="293.808" y="252.866" width="31.301" height="15.65" rx="7.825" transform="rotate(60 293.808 252.866)" fill="#FFA17A"/><rect x="154.911" y="252.866" width="31.301" height="15.65" rx="7.825" transform="rotate(60 154.911 252.866)" fill="#FFAB89"/><rect x="135.348" y="252.866" width="31.301" height="15.65" rx="7.825" transform="rotate(60 135.348 252.866)" fill="#FFAB89"/><rect x="296.044" y="164.833" width="31.301" height="15.65" rx="7.825" transform="rotate(15 296.044 164.833)" fill="#FFA17A"/><rect x="123.752" y="172.934" width="31.301" height="15.65" rx="7.825" transform="rotate(-15 123.752 172.934)" fill="#FFAB89"/><g data-name="mouth" stroke-width="12" stroke-linecap="round"><path d="M207.872 252.866c4.127 4.572 11.447 7.825 17.607 7.825 6.159 0 13.479-3.253 17.606-7.825" stroke="#8B2C0C" stroke-opacity=".05"/><path d="M207.872 250.91c4.127 4.572 11.447 7.825 17.607 7.825 6.159 0 13.479-3.253 17.606-7.825" stroke="#D05B34"/></g><g data-name="eye-open"><g data-name="left"><rect x="125.037" y="192.221" width="31.301" height="15.65" rx="7.825" transform="rotate(45 125.037 192.221)" fill="#000"/><rect x="117.882" y="196.134" width="58.689" height="58.689" rx="29.344" fill="#000"/><rect x="117.882" y="198.089" width="58.689" height="58.689" rx="29.344" fill="#000" fill-opacity=".05"/><path fill-rule="evenodd" clip-rule="evenodd" d="M125.086 233.301c3.223-9.117 11.918-15.649 22.139-15.649 10.222 0 18.917 6.533 22.14 15.652-3.223 9.116-11.919 15.648-22.139 15.648-10.222 0-18.918-6.533-22.14-15.651Z" fill="#784012"/><path fill-rule="evenodd" clip-rule="evenodd" d="M166.831 238.399a23.364 23.364 0 0 0 3.873-12.921c0-12.965-10.511-23.476-23.476-23.476s-23.475 10.511-23.475 23.476c0 4.28 1.145 8.293 3.146 11.748 4.201-6.359 11.412-10.555 19.603-10.555 8.685 0 16.269 4.717 20.329 11.728Z" fill="#000" fill-opacity=".35"/><rect x="133.532" y="211.784" width="27.388" height="27.388" rx="13.694" fill="#000"/><circle cx="140.814" cy="211.609" r="11.738" fill="#fff"/><circle cx="162.848" cy="227.64" r="5.869" fill="#fff"/><circle cx="155.525" cy="239.853" r="3.913" fill="#fff"/></g><g data-name="right"><rect x="337.181" y="203.288" width="31.301" height="15.65" rx="7.825" transform="rotate(135 337.181 203.288)" fill="#000"/><rect x="274.385" y="198.09" width="58.689" height="58.689" rx="29.344" fill="#000" fill-opacity=".05"/><rect x="274.385" y="196.134" width="58.689" height="58.689" rx="29.344" fill="#000"/><path fill-rule="evenodd" clip-rule="evenodd" d="M281.629 233.41c3.035-9.451 11.896-16.29 22.355-16.29 10.182 0 18.849 6.482 22.102 15.544-3.035 9.45-11.897 16.29-22.355 16.29-10.182 0-18.85-6.482-22.102-15.544Z" fill="#784012"/><path fill-rule="evenodd" clip-rule="evenodd" d="M323.862 237.557a23.362 23.362 0 0 0 3.342-12.078c0-12.965-10.511-23.476-23.476-23.476s-23.475 10.511-23.475 23.476c0 4.589 1.317 8.87 3.593 12.487 4.105-6.829 11.586-11.397 20.134-11.397 8.376 0 15.728 4.387 19.882 10.988Z" fill="#000" fill-opacity=".35"/><rect x="290.035" y="211.785" width="27.388" height="27.388" rx="13.694" fill="#000"/><circle cx="297.318" cy="211.609" r="11.738" fill="#fff"/><circle cx="319.352" cy="227.64" r="5.869" fill="#fff"/><circle cx="312.029" cy="239.853" r="3.913" fill="#fff"/></g></g><defs><radialGradient id="a" cx="0" cy="0" r="1" gradientUnits="userSpaceOnUse" gradientTransform="rotate(45 -28.286 68.29) scale(522.888)"><stop stop-color="#FFE600"/><stop offset="1" stop-color="#FFA573"/></radialGradient></defs></svg>