<svg xmlns="http://www.w3.org/2000/svg" width="24" height="24" viewBox="0 0 24 24"><path fill="currentColor" d="M6.41 0L3.845 2.565l3.849.366L8.878.226l2.663 6.883l.35.904l.384-.93L14.75 1.09v-.001l.275-.667l1.1 2.51l3.848-.367L17.407 0h-8.43Zm2.391 1.72l-.73 1.735l-2.886-.221l-3.723-.302l1.1 4.58l5.282 1.964l.014.026l2.558.945h.244l-.001-.005h.882V8.797Zm6.282.16l-2.808 6.799v1.763h1.006l-.002.005l.244-.005h.035l.002-.001h.024l2.376-.878l.01-.018l5.469-2.033l1.099-4.58l-4.042.318l-2.749.206zM2.745 8.245v6.228l4.398 3.664v-5.68l1.284-1.832l-1.65.367L4.76 8.977Zm18.327 0l-2.017.733l-2.015 2.014l-1.65-.367l1.284 1.832v5.68l4.398-3.664zM9.137 10.599l-.304.487l.009.016l-1.148 1.722v8.245l1.1 1.648L10.075 24h3.665l1.283-1.282l1.1-1.65v-8.244l-1.15-1.723l.01-.015l-.18-.24l-.147-.22l-.013.007l-.025-.034l-.791.487h-3.655zm-4.376 6.256v2.381l2.382 2.382V18.87zm14.295 0l-2.382 2.015v2.748l2.382-2.382z"/></svg>